<?xml version="1.0" encoding="UTF-8"?>
<svg id="logo" xmlns="http://www.w3.org/2000/svg" xmlns:xlink="http://www.w3.org/1999/xlink" viewBox="0 0 200 200" width="200" height="200">
  <defs>
    <style>.cls-1{fill:#e03a7b;}.cls-2{fill:url(#_gr_3);}</style>
    <linearGradient id="_gr_3" x1="0" y1="0" x2="1" y2="0" gradientTransform="translate(3.39 115.16) scale(193.23)" gradientUnits="userSpaceOnUse">
      <stop offset="0" stop-color="#172a88"/>
      <stop offset="0" stop-color="#1a2a87"/>
      <stop offset=".05" stop-color="#432d85"/>
      <stop offset=".1" stop-color="#683082"/>
      <stop offset=".16" stop-color="#893380"/>
      <stop offset=".22" stop-color="#a4357e"/>
      <stop offset=".29" stop-color="#ba377d"/>
      <stop offset=".37" stop-color="#cb387c"/>
      <stop offset=".47" stop-color="#d7397b"/>
      <stop offset=".61" stop-color="#de397b"/>
      <stop offset="1" stop-color="#e03a7b"/>
    </linearGradient>
  </defs>
  <path id="r" class="cls-1" d="M151.04,128.62l-6.7,2.79c-1.35.56-2.9.27-3.95-.74l-11.69-11.21c-3.04-2.94-6.92-3.44-11.64-1.47l-1.65.69c-1.87.78-2.76,2.93-1.98,4.8l5.97,14.34c.78,1.87-.11,4.02-1.98,4.8l-6.03,2.51c-1.87.78-4.02-.11-4.8-1.98l-20.53-49.34c-.78-1.87.11-4.02,1.98-4.8l23.11-9.61c5.13-2.13,9.89-2.6,14.28-1.39,5.17,1.42,8.93,4.96,11.3,10.64,2.35,5.65,2.07,10.81-.85,15.48-1.12,1.79-.41,4.07,1.44,5.09,1.4.78,2.78,1.81,4.15,3.11l10.71,10.27c1.91,1.83,1.31,5.02-1.13,6.04ZM123.76,94.75c-.68-1.63-1.72-2.8-3.13-3.49-1.79-.85-3.89-.78-6.3.22l-8.74,3.63c-1.87.78-2.76,2.93-1.98,4.8l2.48,5.96c.78,1.87,2.93,2.76,4.8,1.98l8.74-3.63c2.41-1,3.9-2.53,4.49-4.58.46-1.58.34-3.2-.36-4.89Z"/>
  <path id="circle" class="cls-2" d="M153.81,47.67c22.25,12.73,36.24,36.65,36.24,62.46,0,5.53-.64,11.15-1.98,16.77-3.95,16.55-13.29,30.36-25.74,40.07-12.45,9.7-27.98,15.27-44.26,15.27-5.53,0-11.15-.64-16.77-1.98-16.55-3.95-30.36-13.29-40.07-25.74-9.7-12.45-15.27-27.98-15.27-44.26,0-5.53.64-11.15,1.98-16.77.42-1.76-.67-3.53-2.43-3.95-1.76-.42-3.53.67-3.95,2.43-1.46,6.12-2.16,12.26-2.16,18.29,0,17.78,6.07,34.72,16.65,48.29,10.58,13.57,25.69,23.79,43.72,28.09,6.12,1.46,12.26,2.16,18.29,2.16,17.78,0,34.72-6.07,48.29-16.65,13.57-10.58,23.79-25.69,28.09-43.72,1.46-6.12,2.16-12.26,2.16-18.29,0-28.18-15.24-54.25-39.54-68.15-1.57-.9-3.58-.35-4.48,1.22-.9,1.57-.35,3.58,1.22,4.48h0ZM34.06,139.76c6.04-.65,11.2-2.47,15.48-5.13,3.2-1.99,5.9-4.45,8.12-7.2,3.33-4.12,5.59-8.87,7.02-13.74,1.43-4.88,2.05-9.88,2.05-14.61,0-6.18-1.03-11.86-2.83-16.28-.91-2.21-2.01-4.13-3.47-5.66-.73-.76-1.56-1.43-2.54-1.92-.97-.49-2.09-.8-3.25-.8-1.54,0-3.04.54-4.3,1.4-.95.65-1.8,1.47-2.59,2.44-1.19,1.46-2.25,3.28-3.27,5.51-1.01,2.23-1.97,4.89-2.88,8.04-.5,1.74.5,3.56,2.25,4.06,1.74.5,3.56-.5,4.06-2.25,1.48-5.17,3.08-8.65,4.44-10.58.67-.97,1.28-1.54,1.68-1.8.41-.27.55-.26.61-.27.05,0,.11,0,.29.09.3.14.91.64,1.55,1.6.96,1.42,1.94,3.76,2.61,6.62.68,2.86,1.08,6.23,1.08,9.79,0,3.7-.43,7.6-1.39,11.36-1.44,5.65-4.07,10.95-8.13,14.99-2.03,2.03-4.42,3.75-7.27,5.09-2.85,1.34-6.15,2.29-10.02,2.71-1.8.2-3.1,1.82-2.91,3.62.2,1.8,1.82,3.1,3.62,2.91h0ZM7.56,136.22c5.11-1.44,9.43-3.57,13.01-6.17,5.38-3.9,9.05-8.86,11.34-14,2.29-5.14,3.23-10.45,3.24-15.25,0-4.48-.8-8.5-2.27-11.69-.75-1.59-1.67-3-2.91-4.13-.62-.56-1.33-1.05-2.15-1.41-.81-.35-1.73-.56-2.66-.56-1.4,0-2.77.47-3.92,1.23-1.74,1.15-3.1,2.84-4.35,5.07-1.24,2.24-2.36,5.06-3.38,8.6-.5,1.74.5,3.56,2.25,4.06,1.74.5,3.56-.5,4.06-2.25,1.22-4.26,2.57-7.09,3.69-8.61.55-.76,1.03-1.19,1.32-1.38.15-.09.24-.13.29-.15h.04s0-.01,0-.01v-.03.03s0,0,0,0v-.03.03s.05.01.16.08c.19.12.56.44.95,1.03.59.87,1.2,2.28,1.63,4.03.43,1.75.69,3.83.69,6.09,0,5.25-1.4,11.37-4.91,16.67-1.76,2.66-4.03,5.13-6.96,7.26-2.93,2.13-6.52,3.92-10.93,5.16-1.74.49-2.76,2.3-2.27,4.05.49,1.74,2.3,2.76,4.05,2.27h0ZM34.83,96.26c-1-4.07-2.15-7.07-3.63-9.32-.75-1.12-1.59-2.07-2.65-2.8-1.04-.73-2.35-1.18-3.66-1.18-1.31,0-2.52.43-3.51,1.03-.87.53-1.61,1.2-2.27,1.94-1.16,1.31-2.11,2.87-2.96,4.66-1.26,2.68-2.28,5.86-3,9.34-.72,3.48-1.13,7.24-1.13,11.05,0,3.28.31,6.59,1.02,9.78,1.07,4.77,3.05,9.3,6.42,12.83,1.68,1.76,3.72,3.24,6.08,4.3,2.36,1.07,5.03,1.72,7.97,1.89,1.81.11,3.36-1.28,3.47-3.09.11-1.81-1.28-3.36-3.09-3.47-2.96-.18-5.26-.94-7.14-2.11-1.41-.88-2.61-1.99-3.63-3.34-1.54-2.02-2.69-4.58-3.43-7.47-.75-2.89-1.1-6.09-1.09-9.32,0-5.8,1.13-11.67,2.75-15.85.8-2.08,1.73-3.73,2.52-4.67.39-.47.73-.75.92-.86.1-.06.15-.08.16-.08h0s-.07-.29-.07-.29v.3s.07,0,.07,0l-.07-.29v.3s0-.37,0-.37l-.12.36.12.02v-.37l-.12.36h0s.2.11.46.39c.39.43.95,1.28,1.52,2.6.57,1.31,1.16,3.08,1.7,5.32.43,1.76,2.21,2.84,3.97,2.41,1.76-.43,2.84-2.21,2.41-3.97h0Z"/>
  <path id="l" class="cls-1" d="M87.59,47.53l-16.78.17c-1.55.02-2.83-1.23-2.84-2.79l-.28-27.44c-.02-1.55,1.23-2.83,2.79-2.84l1.85-.02c1.55-.02,2.83,1.23,2.84,2.79l.21,20.65c.02,1.55,1.29,2.8,2.84,2.79l9.3-.1c1.55-.02,2.83,1.23,2.84,2.79v1.15c.03,1.55-1.22,2.83-2.77,2.84Z"/>
  <path id="u" class="cls-1" d="M120.53,36.72c.04,3.85-1.19,6.77-3.69,8.75-2.24,1.76-5.36,2.66-9.37,2.71-4.01.04-7.15-.81-9.42-2.55-2.54-1.93-3.83-4.82-3.87-8.67l-.2-19.26c-.02-1.55,1.23-2.83,2.79-2.84l1.81-.02c1.55-.02,2.83,1.23,2.84,2.79l.19,18.61c.02,1.95.5,3.34,1.44,4.16.94.82,2.39,1.22,4.35,1.2,1.96-.02,3.41-.45,4.33-1.29s1.37-2.22,1.35-4.15l-.19-18.65c-.02-1.55,1.23-2.83,2.79-2.84l1.81-.02c1.55-.02,2.83,1.23,2.84,2.79l.2,19.3Z"/>
  <path id="m" class="cls-1" d="M156.09,47.55l-2.16.02c-1.44-.43-2.16-.94-2.57-2.46l-.08-2.54c-.36-7.51-4.83-4.89-5.45-.89l-.45,1.22c-.37.99-1.3,1.64-2.36,1.66l-2.36.02c-1.05.01-2-.63-2.39-1.61-.05-.12-.07-.24-.08-.36-.49-5.3-5.6-7.9-5.42,1.23v1.43c0,1.4-1.12,2.53-2.51,2.55l-2.03.02c-1.43.01-2.59-1.16-2.57-2.59l.49-27.99c.02-1.38,1.14-2.48,2.52-2.5l3.41-.03c1.06-.01,2.01.64,2.4,1.62l4.95,12.75c.85,2.18,3.95,2.16,4.76-.04l4.74-12.87c.36-.99,1.3-1.65,2.36-1.66l3.48-.04c1.37-.01,2.5,1.06,2.57,2.42l1.3,27.97c.07,1.44-1.07,2.65-2.51,2.66Z"/>
</svg>
