<svg width="1387" height="1000" viewBox="0 0 1387 1000" fill="none" xmlns="http://www.w3.org/2000/svg">
<path d="M40.8255 549.532H98.1415L236.317 281H749.109L942.045 549.532H1179.3C1216.77 549.532 1245.27 586.845 1239.18 628.09L1202.68 876.09C1202.68 878.051 1201.24 879.839 1199.47 879.839H1043.54C1035.53 802.17 976.296 741.646 904.572 741.646C832.848 741.646 773.607 802.17 765.602 879.839H408.257C400.253 802.17 341.012 741.646 269.288 741.646C197.564 741.646 138.328 802.17 130.319 879.839H40.8231C18.2512 879.839 3.81481e-05 859.482 3.81481e-05 834.307V595.055C0.00246002 569.886 18.2512 549.532 40.8255 549.532ZM445.884 388.128H305.643L218.702 549.532L215.665 559.55L215.016 562.207H445.884V388.128ZM804.42 561.967L799.869 549.532L684.106 388.128H555.708V562.21H736.404L804.42 561.967Z" fill="#683082"/>
<path d="M904.572 795.211C949.878 795.211 987.502 831.813 995.024 879.84C995.988 885.55 996.472 891.621 996.472 897.696C996.472 954.114 955.325 1000 904.574 1000C853.819 1000 812.674 954.112 812.674 897.696C812.674 891.624 813.153 885.553 814.112 879.84C821.637 831.81 859.261 795.211 904.572 795.211Z" fill="#683082"/>
<path d="M269.29 795.211C314.601 795.211 352.225 831.813 359.747 879.84C360.711 885.55 361.191 891.621 361.191 897.696C361.191 954.114 320.048 1000 269.293 1000C218.542 1000 177.397 954.112 177.397 897.696C177.397 891.624 177.877 885.553 178.836 879.84C186.358 831.81 223.982 795.211 269.29 795.211Z" fill="#683082"/>
<path d="M1075.38 229.226L1138.86 292.88C1149.76 282.421 1159.21 273.352 1166.3 266.538L1102.25 202.338L1094.42 167.602L1037.27 132.867L1021.59 148.562L1005.9 164.243L1040.64 221.392L1075.38 229.226Z" fill="#683082"/>
<path d="M1268.31 332.922L1362.19 426.503C1379.49 443.8 1379.49 471.852 1362.19 489.16C1344.88 506.457 1316.84 506.457 1299.53 489.16L1205.65 395.579L1268.31 332.922Z" fill="#683082"/>
<path d="M1345.5 277.542C1377.82 248.209 1383.22 214.874 1375.99 186.763C1375.78 184.531 1375.25 182.655 1373.3 181.254L1366.79 175.924C1365.66 174.867 1364.15 174.357 1362.63 174.499C1361.09 174.654 1359.7 175.437 1358.8 176.684L1321.38 225.332C1320.34 226.769 1318.65 227.588 1316.89 227.529L1303.3 228.526C1302.14 228.49 1301.01 228.075 1300.1 227.339L1273.86 205.103C1272.8 204.237 1272.1 203.002 1271.92 201.637L1270.29 189.338C1270.1 187.984 1270.44 186.607 1271.25 185.491L1306.28 137.899C1307.87 135.714 1307.57 132.687 1305.6 130.847L1297.1 124.199C1295.43 122.656 1293.55 122.87 1290.97 123.368C1266.78 128.14 1225.46 151.574 1214.98 183.959C1205.75 212.463 1208.96 232.561 1208.96 232.561C1208.96 248.623 1203.68 264.103 1197.19 270.597L1014.65 445.842C1014.3 446.162 1013.95 446.494 1013.61 446.839C998.533 461.916 998.556 486.383 1013.12 500.949C1027.69 515.515 1052.52 515.895 1067.6 500.818C1068.3 500.118 1068.98 499.394 1069.61 498.646L1245.62 308.373C1267.28 289.093 1310.14 309.631 1345.5 277.542Z" fill="#683082"/>
</svg>
