<svg width="1451" height="1210" viewBox="0 0 1451 1210" fill="none" xmlns="http://www.w3.org/2000/svg">
<g clip-path="url(#clip0_606_107)">
<path d="M1440.18 558.966H1382.86L1244.68 290.436H731.892L538.956 558.966H301.697C264.233 558.966 235.735 596.279 241.823 637.524L278.326 885.522C278.326 887.483 279.765 889.271 281.528 889.271H437.465C445.469 811.603 504.706 751.079 576.429 751.079C648.153 751.079 707.395 811.603 715.399 889.271H1072.74C1080.75 811.603 1139.99 751.079 1211.71 751.079C1283.44 751.079 1342.67 811.603 1350.68 889.271H1440.18C1462.75 889.271 1481 868.915 1481 843.74V604.489C1481 579.32 1462.75 558.966 1440.18 558.966ZM1035.12 397.563H1175.36L1262.3 558.966L1265.34 568.984L1265.98 571.641H1035.12V397.563ZM676.581 571.401L681.132 558.966L796.895 397.563H925.293V571.644H744.597L676.581 571.401Z" fill="#683082"/>
<path d="M576.429 804.648C531.123 804.648 493.5 841.251 485.977 889.277C485.013 894.987 484.529 901.058 484.529 907.133C484.529 963.551 525.677 1009.44 576.427 1009.44C627.182 1009.44 668.327 963.548 668.327 907.133C668.327 901.061 667.848 894.99 666.889 889.277C659.364 841.248 621.74 804.648 576.429 804.648Z" fill="#683082"/>
<path d="M1211.71 804.648C1166.4 804.648 1128.78 841.251 1121.25 889.277C1120.29 894.987 1119.81 901.058 1119.81 907.133C1119.81 963.551 1160.95 1009.44 1211.71 1009.44C1262.46 1009.44 1303.6 963.548 1303.6 907.133C1303.6 901.061 1303.12 894.99 1302.17 889.277C1294.64 841.248 1257.02 804.648 1211.71 804.648Z" fill="#683082"/>
</g>
<path d="M19.2478 406.422L184.081 290.61L156.991 252.054C142.94 253.846 128.395 248.182 119.625 235.75C107.045 217.829 111.352 193.13 129.256 180.542L265.744 84.6366C283.665 72.0657 308.364 76.3804 320.953 94.284C330.339 107.656 330.113 124.663 322.083 137.704L426.776 286.703C441.757 283.563 457.834 289.113 467.238 302.485C479.819 320.397 475.503 345.104 457.599 357.693L321.102 453.59C303.197 466.179 278.499 461.854 265.902 443.951C257.176 431.476 256.776 415.859 263.231 403.253L236.139 364.705L71.3066 480.515C50.8279 494.896 22.6145 489.954 8.23409 469.51C-6.13802 449.032 -1.21417 420.81 19.2478 406.422ZM300.909 108.368C296.106 101.566 286.658 99.9119 279.828 104.68L143.348 200.585C136.545 205.388 134.891 214.836 139.66 221.656C144.461 228.449 153.91 230.104 160.73 225.335L297.212 129.44C304.023 124.638 305.676 115.19 300.909 108.368ZM285.945 429.857C290.747 436.66 300.205 438.313 307.015 433.546L443.506 337.65C450.317 332.849 451.97 323.392 447.195 316.57C442.392 309.768 432.944 308.123 426.124 312.899L289.633 408.795C282.831 413.59 281.186 423.047 285.945 429.857ZM284.361 390.727L408.593 303.442L300.178 149.136L175.946 236.42L284.361 390.727ZM28.2602 455.409C34.8548 464.761 47.8607 467.032 57.2213 460.472L227.518 340.817L203.628 306.81L33.3405 426.465C23.9882 433.051 21.7093 446.048 28.2602 455.409Z" fill="#683082"/>
<path d="M286.772 519.726C286.78 495.663 306.268 476.158 330.331 476.158H465.203C489.275 476.158 508.762 495.664 508.762 519.726V526.73H534V598.562H261.534V583.704V526.73H286.772V519.726ZM485.412 519.744C485.395 508.608 476.321 499.526 465.194 499.508H330.341C319.213 499.526 310.139 508.608 310.122 519.726V533.098H485.412V519.744ZM284.884 550.08V575.212H510.65V550.08H284.884Z" fill="#683082"/>
<defs>
<clipPath id="clip0_606_107">
<rect width="1210" height="1210" fill="white" transform="translate(241)"/>
</clipPath>
</defs>
</svg>
