<svg width="897" height="897" viewBox="0 0 897 897" fill="none" xmlns="http://www.w3.org/2000/svg">
<path d="M453.964 805.953C453.964 829.439 434.912 848.465 411.451 848.465H322.048C298.561 848.465 279.535 829.441 279.535 805.953V786.325C279.535 762.839 298.559 743.812 322.048 743.812H411.451C434.912 743.812 453.964 762.837 453.964 786.325V805.953Z" fill="#683082"/>
<path d="M64.6469 640.668H57.173C33.7126 640.668 14.6602 659.72 14.6602 683.181V741.899C14.6602 765.386 25.6099 784.438 44.361 784.438H49.0422C69.3263 784.438 64.6451 803.463 64.6451 826.951V854.49C64.6469 877.947 83.6994 897 107.16 897H172.147C195.633 897 214.66 877.947 214.66 854.487V784.437V683.179C214.66 659.718 195.635 640.666 172.147 640.666L64.6469 640.668Z" fill="#683082"/>
<path d="M592.724 282.832C572.713 282.832 555.413 296.793 551.198 316.338L527.436 425.889C523.221 445.434 505.892 459.396 485.881 459.396H219.669C196.208 459.396 177.156 478.448 177.156 501.908V534.101C177.156 557.561 196.208 576.614 219.669 576.614H228.4C251.861 576.614 270.913 595.666 270.913 619.153V640.313C270.913 663.773 289.966 682.826 313.426 682.826H643.012C662.969 682.826 680.241 668.919 684.539 649.374L753.413 334.406C756.178 321.869 753.084 308.729 745.009 298.71C736.935 288.636 724.751 282.832 711.859 282.832H592.724Z" fill="#683082"/>
<path d="M854.86 190.525C851.027 210.536 833.535 225.017 813.087 225.017H628.229C615.556 225.017 603.511 219.406 595.489 209.633C587.386 199.833 584.073 186.967 586.456 174.54L613.173 34.5485C617.006 14.5079 634.526 0 654.947 0H839.832C852.506 0 864.496 5.63954 872.573 15.44C880.675 25.2124 883.96 38.0787 881.579 50.5333L854.86 190.525Z" fill="#683082"/>
</svg>
