<svg width="472" height="512" viewBox="0 0 472 512" fill="none" xmlns="http://www.w3.org/2000/svg">
<path d="M28.4825 306.377C30.3892 302.201 34.0465 295.34 40.4539 283.29C43.3981 277.739 46.6927 271.617 50.0645 265.34H20.5187C9.19561 265.341 0 274.51 0 285.859C0 297.195 9.19561 306.377 20.5187 306.377H28.4825Z" fill="#DE397B"/>
<path d="M404.481 265.34H374.936C378.321 271.618 381.602 277.74 384.546 283.29C390.954 295.34 394.598 302.2 396.518 306.377H404.481C415.804 306.377 425 297.194 425 285.859C425 274.509 415.804 265.34 404.481 265.34Z" fill="#DE397B"/>
<path d="M32.6978 484.247C32.6978 499.525 45.0975 511.912 60.3626 511.912C75.641 511.912 88.015 499.525 88.015 484.247V458.086H32.6978V484.247Z" fill="#DE397B"/>
<path d="M336.96 484.247C336.96 499.525 349.36 511.912 364.639 511.912C379.917 511.912 392.303 499.525 392.303 484.247V458.086H336.96V484.247Z" fill="#DE397B"/>
<path d="M388.372 311.513C389.774 311.928 337.167 215.379 334.651 210.166C328.01 196.34 311.59 188 295.585 188C277.09 188 225.573 188 225.573 188C225.573 188 147.908 188 129.401 188C113.383 188 97.0018 196.34 90.3346 210.166C87.8186 215.379 35.2381 311.928 36.626 311.513C36.626 311.513 19.6094 328.491 18.312 329.853C11.1526 337.544 11.6714 344.197 11.6714 350.865C11.6714 350.865 11.6714 413.354 11.6714 427.699C11.6714 442.031 14.2264 449.878 31.1268 449.878H393.871C410.77 449.878 413.339 442.031 413.339 427.699C413.339 413.355 413.339 350.865 413.339 350.865C413.339 344.198 413.844 337.544 406.659 329.853C405.415 328.491 388.372 311.513 388.372 311.513ZM80.1545 281.903C80.1545 281.903 113.941 221.047 115.938 217.066C119.349 210.269 129.077 205.341 139.025 205.341H285.975C295.936 205.341 305.65 210.27 309.062 217.066C311.072 221.048 344.859 281.903 344.859 281.903C347.972 287.506 345.223 297.934 336 297.934H88.9998C79.7776 297.933 77.0417 287.506 80.1545 281.903ZM75.6405 417.244C58.4944 417.244 44.5906 403.354 44.5906 386.207C44.5906 369.048 58.4944 355.157 75.6405 355.157C92.7866 355.157 106.678 369.048 106.678 386.207C106.678 403.353 92.7866 417.244 75.6405 417.244ZM259.632 425.636C259.632 427.905 257.79 429.747 255.533 429.747H169.478C167.209 429.747 165.367 427.905 165.367 425.636V387.724C165.367 385.481 167.209 383.652 169.478 383.652H255.534C257.791 383.652 259.633 385.481 259.633 387.724V425.636H259.632ZM349.359 417.244C332.213 417.244 318.296 403.354 318.296 386.207C318.296 369.048 332.213 355.157 349.359 355.157C366.505 355.157 380.409 369.061 380.409 386.207C380.409 403.353 366.505 417.244 349.359 417.244Z" fill="#DE397B"/>
<g clip-path="url(#clip0_603_19)">
<path d="M462.31 79.8799C462.157 79.4506 462.065 78.96 462.065 78.5C462.065 78.04 462.157 77.5801 462.31 77.1201L467.492 63.5359L467.983 62.248C468.504 60.8375 468.78 59.3963 468.78 57.9551C468.78 53.9688 466.787 50.1357 463.322 47.8359L461.605 46.7014L450.014 39.1273C449.217 38.6061 448.665 37.8088 448.419 36.9195L444.28 21.5875C442.839 16.3133 438.055 12.6643 432.627 12.6643C427.2 12.6643 432.229 12.6643 432.014 12.6643L416.192 13.4615H415.946C415.057 13.4615 414.198 13.1549 413.524 12.6029L401.933 3.28105L401.135 2.63711C398.866 0.889258 396.168 0 393.5 0C390.832 0 388.134 0.889258 385.926 2.66777L374.826 11.6217L373.538 12.6336C372.833 13.1855 371.974 13.4922 371.115 13.4922H370.901L355.078 12.6949C354.833 12.6949 354.618 12.6949 354.434 12.6949C349.007 12.6949 344.223 16.3133 342.782 21.6182L338.642 36.9502C338.397 37.8701 337.814 38.6674 337.017 39.1887L335.882 39.9246L323.709 47.8666C320.213 50.1357 318.25 53.9994 318.25 57.9551C318.25 59.3963 318.496 60.8375 319.048 62.248L324.721 77.1201C324.874 77.5494 324.966 78.04 324.966 78.5C324.966 78.96 324.874 79.4199 324.721 79.8799L319.048 94.752C318.526 96.1625 318.25 97.6037 318.25 99.0449C318.25 103.031 320.244 106.864 323.709 109.164L333.583 115.604L337.017 117.842C337.814 118.363 338.397 119.161 338.642 120.08L342.782 135.413C344.223 140.687 349.007 144.336 354.434 144.336C354.618 144.336 354.833 144.336 355.047 144.336H354.587L370.962 143.538H371.115C372.005 143.538 372.863 143.845 373.538 144.397L385.926 154.363C388.134 156.141 390.832 157.031 393.5 157.031C396.168 157.031 398.866 156.141 401.074 154.363L414.505 143.538L413.432 144.397C414.137 143.845 414.965 143.538 415.854 143.538H416.038L432.045 144.336H431.953C432.137 144.336 432.321 144.336 432.535 144.336C437.963 144.336 442.747 140.717 444.188 135.413L448.327 120.08C448.573 119.161 449.155 118.363 449.953 117.842L463.292 109.133C466.787 106.864 468.75 103.001 468.75 99.0449C468.75 97.6037 468.504 96.1625 467.952 94.752L462.28 79.8799H462.31ZM454.644 74.207C454.123 75.5869 453.847 77.0588 453.847 78.5C453.847 79.9412 454.123 81.4131 454.644 82.793L460.286 97.6344C460.47 98.0943 460.532 98.5543 460.532 99.0143C460.532 100.302 459.888 101.529 458.784 102.265L445.476 110.943C442.992 112.568 441.183 115.021 440.416 117.903L436.276 133.235C435.817 134.922 434.283 136.087 432.535 136.087H432.29H432.229L416.437 135.29C416.253 135.29 416.038 135.29 415.824 135.29C413.064 135.29 410.396 136.24 408.25 137.958L407.176 138.816L395.861 147.923C395.156 148.506 394.297 148.782 393.439 148.782C392.58 148.782 391.722 148.506 391.016 147.923L378.628 137.958C376.482 136.24 373.814 135.29 371.054 135.29C368.294 135.29 370.655 135.29 370.41 135.29L354.587 136.087H354.373C352.656 136.087 351.092 134.922 350.632 133.235L346.492 117.903C345.725 115.052 343.916 112.568 341.433 110.943L331.559 104.503L328.124 102.265C326.99 101.529 326.376 100.302 326.376 99.0143C326.376 98.5543 326.468 98.0943 326.622 97.6344L332.295 82.7623C332.816 81.3824 333.092 79.9105 333.092 78.4693C333.092 77.0281 332.816 75.5562 332.295 74.1764L326.836 59.8562L326.622 59.3043C326.438 58.8443 326.376 58.3844 326.376 57.9244C326.376 56.6365 327.02 55.41 328.124 54.674L341.433 45.9961C343.916 44.3709 345.695 41.8871 346.492 39.0354L350.632 23.7033C351.092 22.0168 352.625 20.8516 354.373 20.8516H354.526L370.441 21.6488C370.625 21.6488 370.839 21.6488 371.023 21.6488C373.783 21.6488 376.451 20.6982 378.597 18.9811L390.986 9.01523C391.691 8.43262 392.55 8.15664 393.408 8.15664C394.267 8.15664 395.125 8.43262 395.831 9.01523L395.033 8.37129L408.219 18.9811C410.365 20.7289 413.064 21.6488 415.793 21.6488C418.522 21.6488 416.192 21.6488 416.345 21.6488H416.314L432.29 20.8516H432.474C434.191 20.8516 435.755 22.0168 436.215 23.7033L440.355 39.0354C441.121 41.8871 442.931 44.3709 445.414 45.9961L460.44 55.8086L458.723 54.674C459.857 55.41 460.47 56.6365 460.47 57.9244C460.47 58.3844 460.378 58.8443 460.225 59.3043L453.847 76.0775L454.583 74.1764L454.644 74.207Z" fill="#DE397B"/>
<path d="M375.163 69.3928L370.931 70.2207C370.717 70.2513 370.594 70.4353 370.625 70.6806L373.783 86.6873H373.599C373.599 86.7179 361.487 72.4898 361.487 72.4898C361.272 72.2445 361.057 72.1832 360.781 72.2445L356.304 73.1338C356.09 73.1644 355.967 73.3484 355.998 73.5937L360.843 98.2476C360.873 98.4623 361.057 98.5849 361.272 98.5543L365.504 97.7263C365.718 97.6957 365.841 97.5117 365.81 97.2664L362.683 81.2904H362.867C362.867 81.2597 375.01 95.4572 375.01 95.4572C375.224 95.7025 375.408 95.7638 375.715 95.7025L380.161 94.8133C380.376 94.7826 380.498 94.5986 380.468 94.3533L375.623 69.6687C375.592 69.4541 375.408 69.3314 375.163 69.3621V69.3928Z" fill="#DE397B"/>
<path d="M401.136 85.7361L390.188 87.8826C390.035 87.9133 389.943 87.8826 389.912 87.6986L388.87 82.4244C388.839 82.2711 388.87 82.1791 389.054 82.1484L398.192 80.3392C398.406 80.3086 398.529 80.1246 398.498 79.9099L397.732 75.9543C397.701 75.7396 397.517 75.617 397.272 75.6476L388.134 77.4568C387.981 77.4568 387.889 77.4261 387.858 77.2728L386.877 72.2133C386.877 72.0599 386.907 71.9679 387.061 71.9373L398.008 69.7908C398.222 69.7601 398.345 69.5761 398.314 69.3308L397.517 65.3445C397.487 65.1299 397.303 65.0072 397.057 65.0379L380.744 68.2576C380.529 68.2883 380.407 68.4722 380.437 68.7176L385.282 93.4021C385.344 93.6168 385.497 93.7394 385.742 93.7088L402.055 90.489C402.27 90.4584 402.393 90.2744 402.362 90.0291L401.565 86.0427C401.534 85.8281 401.35 85.7054 401.136 85.7361Z" fill="#DE397B"/>
<path d="M430.665 58.4766L425.882 59.4272C425.606 59.4885 425.483 59.6111 425.514 59.8871L425.146 76.5377H425.054L417.449 61.4816C417.326 61.267 417.142 61.1443 416.928 61.2057L413.677 61.8496C413.432 61.9109 413.309 62.0643 413.279 62.3096L412.083 79.1135H412.021L405.214 63.9041C405.122 63.6895 404.969 63.5668 404.693 63.6281L399.878 64.5787C399.602 64.64 399.572 64.7934 399.664 65.008L411.101 88.374C411.224 88.5887 411.408 88.7113 411.623 88.65L415.364 87.9141C415.64 87.8527 415.732 87.6688 415.762 87.4541L417.112 70.7729H417.173L424.686 85.7063C424.808 85.9209 424.992 86.0436 425.238 85.9822L428.979 85.2463C429.255 85.185 429.408 85.001 429.408 84.7863L431.094 58.8445C431.094 58.5992 430.972 58.4766 430.726 58.5379L430.665 58.4766Z" fill="#DE397B"/>
</g>
<defs>
<clipPath id="clip0_603_19">
<rect width="157" height="157" fill="white" transform="translate(315)"/>
</clipPath>
</defs>
</svg>
