<?xml version="1.0" encoding="UTF-8"?>
<svg xmlns="http://www.w3.org/2000/svg" version="1.1" viewBox="0 0 512 512">
  <defs>
    <style>
      .cls-1 {
        fill: #de397b;
      }
    </style>
  </defs>
  <!-- Generator: Adobe Illustrator 28.7.7, SVG Export Plug-In . SVG Version: 1.2.0 Build 194)  -->
  <g>
    <g id="_x32_">
      <g>
        <path class="cls-1" d="M259.1,460c0,13.4-10.9,24.3-24.3,24.3h-51c-13.4,0-24.3-10.9-24.3-24.3v-11.2c0-13.4,10.9-24.3,24.3-24.3h51c13.4,0,24.3,10.9,24.3,24.3v11.2Z"/>
        <path class="cls-1" d="M36.9,365.7h-4.3c-13.4,0-24.3,10.9-24.3,24.3v33.5c0,13.4,6.2,24.3,17,24.3h2.7c11.6,0,8.9,10.9,8.9,24.3v15.7c0,13.4,10.9,24.3,24.3,24.3h37.1c13.4,0,24.3-10.9,24.3-24.3v-97.8c0-13.4-10.9-24.3-24.3-24.3h-61.4Z"/>
        <path class="cls-1" d="M338.3,161.4c-11.4,0-21.3,8-23.7,19.1l-13.6,62.5c-2.4,11.2-12.3,19.1-23.7,19.1H125.4c-13.4,0-24.3,10.9-24.3,24.3v18.4c0,13.4,10.9,24.3,24.3,24.3h5c13.4,0,24.3,10.9,24.3,24.3v12.1c0,13.4,10.9,24.3,24.3,24.3h188.1c11.4,0,21.2-7.9,23.7-19.1l39.3-179.8c1.6-7.2-.2-14.7-4.8-20.4-4.6-5.8-11.6-9.1-18.9-9.1h-68Z"/>
        <path class="cls-1" d="M487.9,108.8c-2.2,11.4-12.2,19.7-23.8,19.7h-105.5c-7.2,0-14.1-3.2-18.7-8.8-4.6-5.6-6.5-12.9-5.2-20l15.2-79.9C352.2,8.3,362.2,0,373.8,0h105.5C486.6,0,493.4,3.2,498.1,8.8c4.6,5.6,6.5,12.9,5.1,20l-15.3,79.9Z"/>
      </g>
    </g>
  </g>
</svg>