<svg width="449" height="429" viewBox="0 0 449 429" fill="none" xmlns="http://www.w3.org/2000/svg">
<path d="M28.4825 223.377C30.3892 219.201 34.0465 212.34 40.4539 200.29C43.3981 194.739 46.6927 188.617 50.0645 182.34H20.5187C9.19561 182.341 0 191.51 0 202.859C0 214.195 9.19561 223.377 20.5187 223.377H28.4825Z" fill="#DE397B"/>
<path d="M404.481 182.34H374.936C378.321 188.618 381.602 194.74 384.546 200.29C390.954 212.34 394.598 219.2 396.518 223.377H404.481C415.804 223.377 425 214.194 425 202.859C425 191.509 415.804 182.34 404.481 182.34Z" fill="#DE397B"/>
<path d="M32.6978 401.247C32.6978 416.525 45.0975 428.912 60.3626 428.912C75.641 428.912 88.015 416.525 88.015 401.247V375.086H32.6978V401.247Z" fill="#DE397B"/>
<path d="M336.96 401.247C336.96 416.525 349.36 428.912 364.639 428.912C379.917 428.912 392.303 416.525 392.303 401.247V375.086H336.96V401.247Z" fill="#DE397B"/>
<path d="M388.372 228.513C389.774 228.928 337.167 132.379 334.651 127.166C328.01 113.34 311.59 105 295.585 105C277.09 105 225.573 105 225.573 105C225.573 105 147.908 105 129.401 105C113.383 105 97.0018 113.34 90.3346 127.166C87.8186 132.379 35.2381 228.928 36.626 228.513C36.626 228.513 19.6094 245.491 18.312 246.853C11.1526 254.544 11.6714 261.197 11.6714 267.865C11.6714 267.865 11.6714 330.354 11.6714 344.699C11.6714 359.031 14.2264 366.878 31.1268 366.878H393.871C410.77 366.878 413.339 359.031 413.339 344.699C413.339 330.355 413.339 267.865 413.339 267.865C413.339 261.198 413.844 254.544 406.659 246.853C405.415 245.491 388.372 228.513 388.372 228.513ZM80.1545 198.903C80.1545 198.903 113.941 138.047 115.938 134.066C119.349 127.269 129.077 122.341 139.025 122.341H285.975C295.936 122.341 305.65 127.27 309.062 134.066C311.072 138.048 344.859 198.903 344.859 198.903C347.972 204.506 345.223 214.934 336 214.934H88.9998C79.7776 214.933 77.0417 204.506 80.1545 198.903ZM75.6405 334.244C58.4944 334.244 44.5906 320.354 44.5906 303.207C44.5906 286.048 58.4944 272.157 75.6405 272.157C92.7866 272.157 106.678 286.048 106.678 303.207C106.678 320.353 92.7866 334.244 75.6405 334.244ZM259.632 342.636C259.632 344.905 257.79 346.747 255.533 346.747H169.478C167.209 346.747 165.367 344.905 165.367 342.636V304.724C165.367 302.481 167.209 300.652 169.478 300.652H255.534C257.791 300.652 259.633 302.481 259.633 304.724V342.636H259.632ZM349.359 334.244C332.213 334.244 318.296 320.354 318.296 303.207C318.296 286.048 332.213 272.157 349.359 272.157C366.505 272.157 380.409 286.061 380.409 303.207C380.409 320.353 366.505 334.244 349.359 334.244Z" fill="#DE397B"/>
<g clip-path="url(#clip0_604_60)">
<path d="M335.595 92.7404C335.999 94.7169 336.538 95.7277 336.538 95.7277C336.718 96.2667 337.167 96.6486 337.706 96.7384C338.268 96.8283 338.807 96.6037 339.144 96.132L340.604 94.088L348.892 82.4533C350.486 80.2072 353.766 79.8029 356.191 81.5548L370.14 91.5499C372.565 93.2794 373.239 96.5138 371.645 98.7599L363.154 110.687L361.762 112.641C361.447 113.09 361.402 113.696 361.649 114.191C361.919 114.685 362.413 114.999 362.975 114.977C362.975 114.977 364.3 115.201 366.389 114.932C371.689 114.258 376.833 112.057 381.168 108.261C387.255 102.915 390.467 95.5255 390.646 88.0236C390.691 85.755 388.647 75.9396 393.993 70.5939C399.339 65.2482 444.508 20.0343 444.508 20.0343C449.09 15.4523 449.09 8.01773 444.508 3.4357C439.926 -1.14633 432.491 -1.14633 427.909 3.4357C427.909 3.4357 381.64 49.7052 377.417 53.9279C373.194 58.1505 361.425 59.4308 359.089 59.7453C353.878 60.4416 348.802 62.6427 344.534 66.3712C336.785 73.1544 333.708 83.2843 335.595 92.7179L335.595 92.7404ZM440.016 7.92788C442.217 10.1291 442.217 13.6779 440.016 15.8791C437.814 18.0802 434.266 18.0802 432.064 15.8791C429.863 13.6779 429.863 10.1291 432.064 7.92788C434.266 5.72671 437.814 5.72671 440.016 7.92788Z" fill="#DE397B"/>
</g>
<defs>
<clipPath id="clip0_604_60">
<rect width="115" height="115" fill="white" transform="translate(449 115) rotate(-180)"/>
</clipPath>
</defs>
</svg>
