<svg width="464" height="477" viewBox="0 0 464 477" fill="none" xmlns="http://www.w3.org/2000/svg">
<path d="M28.4825 271.377C30.3892 267.201 34.0465 260.34 40.4539 248.29C43.3981 242.739 46.6927 236.617 50.0645 230.34H20.5187C9.19561 230.341 0 239.51 0 250.859C0 262.195 9.19561 271.377 20.5187 271.377H28.4825Z" fill="#DE397B"/>
<path d="M404.481 230.34H374.936C378.321 236.618 381.602 242.74 384.546 248.29C390.954 260.34 394.598 267.2 396.518 271.377H404.481C415.804 271.377 425 262.194 425 250.859C425 239.509 415.804 230.34 404.481 230.34Z" fill="#DE397B"/>
<path d="M32.6978 449.247C32.6978 464.525 45.0975 476.912 60.3626 476.912C75.641 476.912 88.015 464.525 88.015 449.247V423.086H32.6978V449.247Z" fill="#DE397B"/>
<path d="M336.96 449.247C336.96 464.525 349.36 476.912 364.639 476.912C379.917 476.912 392.303 464.525 392.303 449.247V423.086H336.96V449.247Z" fill="#DE397B"/>
<path d="M388.372 276.513C389.774 276.928 337.167 180.379 334.651 175.166C328.01 161.34 311.59 153 295.585 153C277.09 153 225.573 153 225.573 153C225.573 153 147.908 153 129.401 153C113.383 153 97.0018 161.34 90.3346 175.166C87.8186 180.379 35.2381 276.928 36.626 276.513C36.626 276.513 19.6094 293.491 18.312 294.853C11.1526 302.544 11.6714 309.197 11.6714 315.865C11.6714 315.865 11.6714 378.354 11.6714 392.699C11.6714 407.031 14.2264 414.878 31.1268 414.878H393.871C410.77 414.878 413.339 407.031 413.339 392.699C413.339 378.355 413.339 315.865 413.339 315.865C413.339 309.198 413.844 302.544 406.659 294.853C405.415 293.491 388.372 276.513 388.372 276.513ZM80.1545 246.903C80.1545 246.903 113.941 186.047 115.938 182.066C119.349 175.269 129.077 170.341 139.025 170.341H285.975C295.936 170.341 305.65 175.27 309.062 182.066C311.072 186.048 344.859 246.903 344.859 246.903C347.972 252.506 345.223 262.934 336 262.934H88.9998C79.7776 262.933 77.0417 252.506 80.1545 246.903ZM75.6405 382.244C58.4944 382.244 44.5906 368.354 44.5906 351.207C44.5906 334.048 58.4944 320.157 75.6405 320.157C92.7866 320.157 106.678 334.048 106.678 351.207C106.678 368.353 92.7866 382.244 75.6405 382.244ZM259.632 390.636C259.632 392.905 257.79 394.747 255.533 394.747H169.478C167.209 394.747 165.367 392.905 165.367 390.636V352.724C165.367 350.481 167.209 348.652 169.478 348.652H255.534C257.791 348.652 259.633 350.481 259.633 352.724V390.636H259.632ZM349.359 382.244C332.213 382.244 318.296 368.354 318.296 351.207C318.296 334.048 332.213 320.157 349.359 320.157C366.505 320.157 380.409 334.061 380.409 351.207C380.409 368.353 366.505 382.244 349.359 382.244Z" fill="#DE397B"/>
<path d="M462.779 60.6221C460.091 53.9436 453.277 49.4641 445.811 49.4641H424.309C423.63 49.4641 423.006 49.4641 422.463 49.4641C422.626 49.2469 422.789 49.0297 422.925 48.8668C423.658 47.8895 424.255 47.1293 424.744 46.3691C424.934 46.1248 425.205 45.8262 425.531 45.4189C428.11 42.3783 433.485 36.0256 434.897 27.2023C435.684 22.3156 434.246 17.3203 430.988 13.4924C427.947 9.93594 423.685 7.81836 419.558 7.81836C415.432 7.81836 411.767 9.88164 409.649 13.5195C409.323 14.0354 408.97 14.7141 408.536 15.5014C406.418 19.275 402.02 27.0937 397.758 30.1887C392.871 33.718 388.555 38.4689 384.401 43.0842C378.673 49.4098 372.727 55.9525 367.922 55.9525C363.117 55.9525 361.135 58.9932 361.135 62.7396V109.028C361.135 112.774 364.175 115.815 367.922 115.815C371.668 115.815 384.157 120.131 392.355 123.308C398.654 125.724 404.084 127.814 407.749 128.547C408.835 128.765 409.948 129.009 411.088 129.253C415.296 130.176 420.074 131.235 424.798 131.235C432.345 131.235 438.155 128.52 442.119 123.145C445.974 117.905 450.372 104.331 456.181 85.7072C456.589 84.4313 456.969 83.1824 457.349 81.9607C466.145 72.5945 464.109 64.0156 462.779 60.6764V60.6221ZM451.403 78.3229C446.788 93.0373 440.625 113.752 436.689 119.1C433.703 123.172 429.44 124.421 424.825 124.421C420.21 124.421 413.966 122.819 409.106 121.842C400.989 120.213 378.075 108.973 367.949 108.973V62.6853C380.22 62.6853 389.966 44.1701 401.749 35.6455C408.102 31.0574 413.423 20.4967 415.513 16.9402C416.463 15.3113 417.956 14.5783 419.585 14.5783C423.929 14.5783 429.25 19.6822 428.219 26.1164C426.807 34.9396 420.101 40.9395 419.042 42.7041C417.984 44.4688 413.396 49.4098 413.396 52.2332C413.396 55.0566 415.16 56.2512 424.336 56.2512H445.838C455.041 56.2512 463.131 67.0563 451.403 78.3229Z" fill="#DE397B"/>
<path d="M325 68.0598V111.009C325 116.303 329.289 120.619 334.611 120.619H346.067C349.596 120.619 352.474 117.741 352.474 114.212V58.4492H334.611C329.289 58.4492 325 62.7658 325 68.0598ZM338.52 101.561C340.963 101.561 342.945 103.543 342.945 105.959C342.945 108.375 340.963 110.357 338.547 110.357C336.131 110.357 334.122 108.375 334.122 105.959C334.122 103.516 336.104 101.561 338.547 101.561H338.52Z" fill="#DE397B"/>
</svg>
